<svg xmlns="http://www.w3.org/2000/svg" width="170" height="233" viewBox="0 0 170 233"><path fill="#f0de7f" stroke="#70683f" stroke-linecap="round" stroke-linejoin="round" stroke-width="4" d="M84.3 226.4L165.5 3.9H3.2l81.1 222.5z"/><path fill="#70683f" d="M53 70.3l5.4-10.9-7.6-3.3L45.3 67l-7.5-3.3 5.5-10.9-7.7-3.4 2.8-6.4 8 3.5 6.2-12.3-8.7-3.8 2.8-6.4 9 3.9L61.2 17l7.5 3.3-5.5 11 7.7 3.4 5.4-10.9 7.4 3.2-5.5 10.9 7.7 3.4-2.8 6.4-8-3.5L69 56.5l8.6 3.8-2.8 6.4-9-3.9-5.4 10.8zm8.5-17.1l6.2-12.3-7.7-3.4-6.1 12.4z"/></svg>